<svg xmlns="http://www.w3.org/2000/svg" width="39.286" height="39.286" viewBox="0 0 39.286 39.286">
  <path id="_038-github" data-name="038-github" d="M19.643,0A19.72,19.72,0,0,0,0,19.643c0,9.207,6.46,17.57,15.039,19.643v-6.5a4.73,4.73,0,0,1-5.3-2.359c-.446-.753-1.237-1.569-2.062-1.509l-.2-2.293a4.734,4.734,0,0,1,4.244,2.627,2.545,2.545,0,0,0,1.477,1.263,3.094,3.094,0,0,0,1.932-.168,5.4,5.4,0,0,1,1.353-2.768h0c-5.116-.763-7.155-3.477-7.965-5.62a9.013,9.013,0,0,1,1.4-8.644.308.308,0,0,0,.078-.238,7.535,7.535,0,0,1,.229-5.03c1,.3,1.167-.3,4.359,1.641l.552.331c.231.138.158.059.389.042a16.67,16.67,0,0,1,4.122-.58,16.742,16.742,0,0,1,4.179.595l.179.018c-.016,0,.049-.011.156-.076C28.145,7.6,28,8.392,29.071,8.044a7.663,7.663,0,0,1,.224,5.032c-.116.357,3.457,3.629,1.477,8.882-.809,2.143-2.848,4.858-7.964,5.621h0c.656,1,1.444,1.531,1.44,3.593v8.112c8.579-2.073,15.039-10.436,15.039-19.643A19.719,19.719,0,0,0,19.643,0Zm0,0" fill="#4b00ff"/>
</svg>
