<svg xmlns="http://www.w3.org/2000/svg" opacity="0.6" width="100%" height="100%" viewBox="0 0 1717.065 153.18">
  <path id="kurtdarielcom-text" d="M44.505-149.04v58.374H60.237l24.84-58.374h33.741L87.768-77,120.06,0H85.905L60.237-62.1H44.505V0H13.455V-149.04ZM186.3,2.07a62.33,62.33,0,0,1-20.6-3.209,44.508,44.508,0,0,1-15.732-9.212,39.239,39.239,0,0,1-9.936-14.594A52.011,52.011,0,0,1,136.62-44.3V-149.04h31.05V-44.505q0,9.522,4.864,14.594T186.3-24.84q8.694,0,13.662-5.072t4.968-14.594V-149.04h31.05V-44.3a52.012,52.012,0,0,1-3.415,19.355,39.239,39.239,0,0,1-9.936,14.594A44.662,44.662,0,0,1,207-1.139,62.091,62.091,0,0,1,186.3,2.07ZM311.535-149.04a69.874,69.874,0,0,1,21.942,3.209,47.987,47.987,0,0,1,16.56,9.108,40.192,40.192,0,0,1,10.557,14.283A46.166,46.166,0,0,1,364.32-103.5q0,14.49-7.038,24.84a44.085,44.085,0,0,1-19.458,15.732L366.39,0H333.27L308.016-57.96H292.7V0H261.855V-149.04ZM292.7-81.765h18.837q10.143,0,15.939-5.486t5.8-14.8q0-9.729-5.9-15.422t-15.836-5.692H292.7Zm87.147-38.3v-28.98h109.71v28.98h-39.33V0h-31.05V-120.06Zm130-28.98H558.9a63.725,63.725,0,0,1,21.424,3.415,46.3,46.3,0,0,1,16.456,9.833,44.123,44.123,0,0,1,10.557,15.318,51,51,0,0,1,3.726,19.872v51.957a51.768,51.768,0,0,1-3.726,19.976,42.879,42.879,0,0,1-10.557,15.318,48.4,48.4,0,0,1-16.456,9.833A62.022,62.022,0,0,1,558.9,0H509.841Zm31.05,120.06H558.9q9.522,0,15.318-5.382t5.8-14.283V-100.6q0-8.694-5.8-14.076T558.9-120.06H540.891ZM662.814-149.04h41.4L743.13,0H711.666L703.8-34.155H662.193L654.327,0H623.07ZM698-58.374l-11.385-49.059q-.621-3.1-1.242-6.727t-1.035-6.935q-.414-3.519-.828-7.245h-1.242q-.414,3.726-1.035,7.245-.414,3.312-.932,6.935a57.956,57.956,0,0,1-1.345,6.727L667.782-58.374ZM808.335-149.04a69.874,69.874,0,0,1,21.942,3.209,47.987,47.987,0,0,1,16.56,9.108,40.192,40.192,0,0,1,10.557,14.283A46.166,46.166,0,0,1,861.12-103.5q0,14.49-7.038,24.84a44.085,44.085,0,0,1-19.458,15.732L863.19,0H830.07L804.816-57.96H789.5V0H758.655V-149.04ZM789.5-81.765h18.837q10.143,0,15.939-5.486t5.8-14.8q0-9.729-5.9-15.422t-15.836-5.692H789.5Zm95.427-40.365v-26.91h93.15v26.91h-31.05v95.22h31.05V0h-93.15V-26.91h31.05v-95.22ZM1010.16,0V-149.04h94.185v26.91H1041.21v32.292h55.89v26.91h-55.89V-26.91h63.135V0Zm158.355-149.04V-28.98h61.065V0h-92.115V-149.04Zm113.85,129.582q0-9.936,5.9-15.939t15.835-6q9.936,0,15.836,6t5.9,15.939q0,9.729-5.9,15.629T1304.1,2.07q-9.936,0-15.835-5.9T1282.365-19.458ZM1429.128,2.07a64.612,64.612,0,0,1-21.321-3.312,47.741,47.741,0,0,1-16.353-9.419,41.725,41.725,0,0,1-10.557-14.7,47.633,47.633,0,0,1-3.726-19.148v-60.03a47.633,47.633,0,0,1,3.726-19.148,41.725,41.725,0,0,1,10.557-14.7,47.58,47.58,0,0,1,16.456-9.419,65.54,65.54,0,0,1,21.425-3.312,63.937,63.937,0,0,1,21.114,3.312,47.742,47.742,0,0,1,16.353,9.419,41.726,41.726,0,0,1,10.557,14.7,47.633,47.633,0,0,1,3.726,19.148h-31.05q0-8.694-5.589-13.662t-15.111-4.968q-9.729,0-15.422,4.968t-5.693,13.662v60.03q0,8.694,5.485,13.662t15.422,4.968q9.729,0,15.318-5.175a17.493,17.493,0,0,0,5.589-13.455h31.05a47.633,47.633,0,0,1-3.726,19.148,41.726,41.726,0,0,1-10.557,14.7,47.742,47.742,0,0,1-16.353,9.419A64.612,64.612,0,0,1,1429.128,2.07Zm123.372,0a65.539,65.539,0,0,1-21.424-3.312,47.582,47.582,0,0,1-16.457-9.419,41.725,41.725,0,0,1-10.557-14.7,47.633,47.633,0,0,1-3.726-19.148v-60.237a46.9,46.9,0,0,1,3.726-19.044,41.963,41.963,0,0,1,10.557-14.593,47.582,47.582,0,0,1,16.457-9.419,65.54,65.54,0,0,1,21.424-3.312,65.54,65.54,0,0,1,21.425,3.312,47.58,47.58,0,0,1,16.456,9.419,41.963,41.963,0,0,1,10.557,14.593,46.9,46.9,0,0,1,3.726,19.044v60.237a46,46,0,0,1-3.83,18.941,42.876,42.876,0,0,1-10.66,14.7,48.9,48.9,0,0,1-16.457,9.522A63.068,63.068,0,0,1,1552.5,2.07Zm-21.114-46.575q0,8.9,5.693,14.18t15.422,5.278q9.729,0,15.422-5.278t5.693-14.18v-60.237q0-8.9-5.693-14.179T1552.5-124.2q-9.729,0-15.422,5.278t-5.693,14.179ZM1658.9-149.04l14.076,45.126a44.49,44.49,0,0,1,1.656,6.935q.621,3.83,1.035,7.142.621,4.14.828,8.073h1.656q.414-3.933.828-8.073.414-3.312,1.035-7.142t1.449-6.935l12.627-45.126h36.432V0H1703.4V-91.08q0-5.8.518-12.42t1.345-12.42q.621-6.831,1.656-13.455h-3.1q-1.449,6.417-2.691,12.42-1.035,4.968-2.277,10.246t-2.07,8.383l-8.694,33.12h-22.356L1656-98.325q-.828-3.1-2.07-8.28t-2.277-10.35q-1.242-5.8-2.484-12.42h-2.9q1.035,6.624,1.863,13.455.828,5.8,1.345,12.42T1650-91.08V0H1622.88V-149.04Z" transform="translate(-13.455 151.11)" fill="#011627" opacity="0.06"/>
</svg>
