<svg xmlns="http://www.w3.org/2000/svg" opacity="0.6" width="100%" height="100%" viewBox="0 0 1479.015 153.387">
  <path id="SPOT-IT_CEA" d="M9.315-40.365h31.05Q42.021-24.84,62.721-24.84q10.35,0,15.732-4.451a14.657,14.657,0,0,0,5.382-11.9,16.529,16.529,0,0,0-4.243-11.385A21.345,21.345,0,0,0,67.9-59L52.164-62.514q-20.286-4.554-30.74-16.25T10.971-108.675a41.071,41.071,0,0,1,3.622-17.388A38.432,38.432,0,0,1,24.84-139.518a47.738,47.738,0,0,1,16.042-8.694,67.582,67.582,0,0,1,21.218-3.1q22.149,0,35.5,10.971t14.8,30.429H81.351a14.762,14.762,0,0,0-6.106-10.66q-5.279-3.83-13.973-3.829-9.108,0-14.179,4.347a13.834,13.834,0,0,0-5.071,10.971,14.276,14.276,0,0,0,3.933,10.04q3.933,4.244,11.385,5.9L73.9-89.424q20.079,4.554,30.533,16.456t10.453,30.326a43.171,43.171,0,0,1-3.726,18.113A40.133,40.133,0,0,1,100.5-10.454,50.525,50.525,0,0,1,83.835-1.242,67.164,67.164,0,0,1,62.1,2.07a70,70,0,0,1-21.114-3A49.652,49.652,0,0,1,24.633-9.419,39.683,39.683,0,0,1,13.869-22.77,45.392,45.392,0,0,1,9.315-40.365ZM189.405-149.04a69.874,69.874,0,0,1,21.942,3.209,46.191,46.191,0,0,1,16.56,9.315,41.726,41.726,0,0,1,10.557,14.7,48.176,48.176,0,0,1,3.726,19.354,48.379,48.379,0,0,1-3.726,19.251,40.521,40.521,0,0,1-10.557,14.7,48.35,48.35,0,0,1-16.56,9.315,67.861,67.861,0,0,1-21.942,3.312H168.291V0h-31.05V-149.04ZM168.291-81.765h21.114q10.35,0,16.042-5.693t5.693-15.007q0-9.315-5.693-15.008t-16.042-5.692H168.291ZM310.5,2.07a65.54,65.54,0,0,1-21.424-3.312,47.581,47.581,0,0,1-16.456-9.419,41.726,41.726,0,0,1-10.557-14.7,47.633,47.633,0,0,1-3.726-19.148v-60.237a46.9,46.9,0,0,1,3.726-19.044,41.964,41.964,0,0,1,10.557-14.593,47.581,47.581,0,0,1,16.456-9.419A65.54,65.54,0,0,1,310.5-151.11a65.54,65.54,0,0,1,21.424,3.312,47.581,47.581,0,0,1,16.457,9.419,41.964,41.964,0,0,1,10.557,14.593,46.9,46.9,0,0,1,3.726,19.044v60.237a46,46,0,0,1-3.829,18.941,42.876,42.876,0,0,1-10.66,14.7,48.9,48.9,0,0,1-16.456,9.522A63.068,63.068,0,0,1,310.5,2.07ZM289.386-44.505q0,8.9,5.693,14.18T310.5-25.047q9.729,0,15.422-5.278t5.693-14.18v-60.237q0-8.9-5.693-14.179T310.5-124.2q-9.729,0-15.421,5.278t-5.693,14.179Zm90.459-75.555v-28.98h109.71v28.98h-39.33V0h-31.05V-120.06Zm256.68-2.07v-26.91h93.15v26.91h-31.05v95.22h31.05V0h-93.15V-26.91h31.05v-95.22Zm115.92,2.07v-28.98h109.71v28.98h-39.33V0h-31.05V-120.06ZM910.8-17.595q0-9.315,5.693-15.111T931.5-38.5q9.315,0,15.008,5.8T952.2-17.595a18.816,18.816,0,0,1-5.693,14.179Q940.815,2.07,931.5,2.07T916.493-3.415A18.816,18.816,0,0,1,910.8-17.595Zm0-77.418q0-9.315,5.693-15.111t15.007-5.8q9.315,0,15.008,5.8T952.2-95.013a18.816,18.816,0,0,1-5.693,14.18q-5.692,5.485-15.008,5.485t-15.007-5.485A18.816,18.816,0,0,1,910.8-95.013ZM1180.728,2.07a64.612,64.612,0,0,1-21.321-3.312,47.741,47.741,0,0,1-16.353-9.419,41.725,41.725,0,0,1-10.557-14.7,47.633,47.633,0,0,1-3.726-19.148v-60.03a47.633,47.633,0,0,1,3.726-19.148,41.725,41.725,0,0,1,10.557-14.7,47.58,47.58,0,0,1,16.456-9.419,65.54,65.54,0,0,1,21.425-3.312,63.937,63.937,0,0,1,21.114,3.312,47.742,47.742,0,0,1,16.353,9.419,41.726,41.726,0,0,1,10.557,14.7,47.633,47.633,0,0,1,3.726,19.148h-31.05q0-8.694-5.589-13.662t-15.111-4.968q-9.729,0-15.422,4.968t-5.693,13.662v60.03q0,8.694,5.485,13.662t15.422,4.968q9.729,0,15.318-5.175a17.493,17.493,0,0,0,5.589-13.455h31.05a47.633,47.633,0,0,1-3.726,19.148,41.726,41.726,0,0,1-10.557,14.7,47.742,47.742,0,0,1-16.353,9.419A64.612,64.612,0,0,1,1180.728,2.07ZM1258.56,0V-149.04h94.185v26.91H1289.61v32.292h55.89v26.91h-55.89V-26.91h63.135V0Zm149.454-149.04h41.4L1488.33,0h-31.464L1449-34.155h-41.607L1399.527,0H1368.27Zm35.19,90.666-11.385-49.059q-.621-3.1-1.242-6.727t-1.035-6.935q-.414-3.519-.828-7.245h-1.242q-.414,3.726-1.035,7.245-.414,3.312-.932,6.935a57.981,57.981,0,0,1-1.346,6.727l-11.178,49.059Z" transform="translate(-9.315 151.317)" fill="#011627" opacity="0.06"/>
</svg>
