<?xml version="1.0" standalone="no"?>
<!DOCTYPE svg PUBLIC "-//W3C//DTD SVG 20010904//EN"
 "http://www.w3.org/TR/2001/REC-SVG-20010904/DTD/svg10.dtd">
<svg version="1.0" xmlns="http://www.w3.org/2000/svg"
 width="260.000000pt" height="260.000000pt" viewBox="0 0 260.000000 260.000000"
 preserveAspectRatio="xMidYMid meet">
<metadata>
Created by potrace 1.11, written by Peter Selinger 2001-2013
</metadata>
<g transform="translate(0.000000,260.000000) scale(0.100000,-0.100000)"
fill="#000000" stroke="none">
<path d="M199 2038 c-1 -2 -2 -333 -3 -735 l-1 -733 35 -1 c54 -1 212 -1 240
0 l26 1 -1 178 -1 177 38 42 38 42 83 -117 c45 -64 90 -128 99 -142 9 -14 43
-61 75 -104 l58 -80 164 2 c90 0 166 3 168 6 4 4 -51 85 -193 284 -85 120
-224 322 -226 331 -3 7 158 193 329 381 35 39 73 86 73 92 0 2 -286 2 -326 -1
-6 -1 -74 -76 -152 -168 -77 -93 -160 -190 -184 -217 l-43 -48 0 403 0 404
-147 3 c-82 1 -149 1 -149 0z"/>
<path d="M2107 1760 c1 -169 -2 -278 -8 -275 -5 4 -9 11 -9 17 0 15 -58 79
-99 109 -54 39 -118 60 -194 64 -228 13 -396 -120 -453 -361 -19 -80 -25 -256
-12 -339 43 -275 226 -441 465 -421 123 10 229 67 283 153 17 26 30 43 31 37
0 -5 0 -46 0 -91 l-1 -83 37 -1 c59 -1 216 -1 239 0 l22 1 0 735 0 735 -152 0
-151 0 2 -280z m-126 -355 c89 -59 137 -185 126 -329 -9 -103 -32 -162 -86
-216 -52 -51 -97 -69 -168 -65 -86 5 -148 50 -190 141 -26 54 -28 68 -28 179
1 108 3 126 27 176 48 104 118 150 221 144 43 -3 70 -11 98 -30z"/>
</g>
</svg>
